<mxfile host="65bd71144e">
    <diagram name="Page-1" id="K3pQaOsR863MernBFzv4">
        <mxGraphModel dx="300" dy="541" grid="0" gridSize="10" guides="1" tooltips="1" connect="1" arrows="1" fold="1" page="1" pageScale="1" pageWidth="850" pageHeight="1100" math="0" shadow="0">
            <root>
                <mxCell id="0"/>
                <mxCell id="1" parent="0"/>
                <mxCell id="sye9myAm-3yVgWWKUQyK-3" style="edgeStyle=orthogonalEdgeStyle;rounded=0;sketch=1;hachureGap=4;jiggle=2;curveFitting=1;orthogonalLoop=1;jettySize=auto;html=1;entryX=0;entryY=0.5;entryDx=0;entryDy=0;fontFamily=Architects Daughter;fontSource=https%3A%2F%2Ffonts.googleapis.com%2Fcss%3Ffamily%3DArchitects%2BDaughter;fontSize=16;" parent="1" source="sye9myAm-3yVgWWKUQyK-1" target="sye9myAm-3yVgWWKUQyK-2" edge="1">
                    <mxGeometry relative="1" as="geometry"/>
                </mxCell>
                <mxCell id="sye9myAm-3yVgWWKUQyK-1" value="Google Keep Clone&lt;br&gt;[Container: React App]" style="rounded=1;whiteSpace=wrap;html=1;fillColor=#f5f5f5;gradientColor=#b3b3b3;strokeColor=#666666;sketch=1;curveFitting=1;jiggle=2;" parent="1" vertex="1">
                    <mxGeometry x="115" y="266" width="220" height="140" as="geometry"/>
                </mxCell>
                <mxCell id="sye9myAm-3yVgWWKUQyK-5" style="edgeStyle=orthogonalEdgeStyle;rounded=0;sketch=1;hachureGap=4;jiggle=2;curveFitting=1;orthogonalLoop=1;jettySize=auto;html=1;entryX=1;entryY=0.75;entryDx=0;entryDy=0;fontFamily=Architects Daughter;fontSource=https%3A%2F%2Ffonts.googleapis.com%2Fcss%3Ffamily%3DArchitects%2BDaughter;fontSize=16;" parent="1" source="sye9myAm-3yVgWWKUQyK-2" target="sye9myAm-3yVgWWKUQyK-1" edge="1">
                    <mxGeometry relative="1" as="geometry">
                        <Array as="points">
                            <mxPoint x="460" y="371"/>
                            <mxPoint x="460" y="371"/>
                        </Array>
                    </mxGeometry>
                </mxCell>
                <mxCell id="sye9myAm-3yVgWWKUQyK-2" value="Backend&lt;br&gt;[software System: Firebase - Firestore]" style="rounded=1;whiteSpace=wrap;html=1;fillColor=#f5f5f5;gradientColor=#b3b3b3;strokeColor=#666666;sketch=1;curveFitting=1;jiggle=2;" parent="1" vertex="1">
                    <mxGeometry x="504" y="264" width="220" height="140" as="geometry"/>
                </mxCell>
                <mxCell id="sye9myAm-3yVgWWKUQyK-4" value="&lt;font style=&quot;font-size: 14px;&quot;&gt;&lt;b&gt;CRUD Operations&lt;/b&gt;&lt;/font&gt;" style="text;html=1;align=center;verticalAlign=middle;resizable=0;points=[];autosize=1;strokeColor=none;fillColor=none;fontSize=20;fontFamily=Architects Daughter;" parent="1" vertex="1">
                    <mxGeometry x="360" y="293" width="130" height="36" as="geometry"/>
                </mxCell>
            </root>
        </mxGraphModel>
    </diagram>
</mxfile>